<?xml version="1.0" encoding="utf-8"?>
<!-- Generator: Adobe Illustrator 16.0.4, SVG Export Plug-In . SVG Version: 6.00 Build 0)  -->
<!DOCTYPE svg PUBLIC "-//W3C//DTD SVG 1.1//EN" "http://www.w3.org/Graphics/SVG/1.1/DTD/svg11.dtd">
<svg version="1.1" id="Layer_1" xmlns="http://www.w3.org/2000/svg" xmlns:xlink="http://www.w3.org/1999/xlink" x="0px" y="0px"
	 width="373.026px" height="77.248px" viewBox="0 0 373.026 77.248" enable-background="new 0 0 373.026 77.248"
	 xml:space="preserve">
<path d="M26.677,5.383h-9.924v22.378h-6.83V5.383H0V0.361h26.677V5.383z"/>
<path d="M58.178,27.762h-6.83V16.673h-13.66v11.089h-6.83v-27.4h6.83V11.37h13.66V0.361h6.83V27.762z"/>
<path d="M84.576,27.762H64.368v-27.4h19.927v5.022H71.198v5.746h12.495v5.022H71.198v6.589h13.378V27.762z"/>
<path d="M126.523,25.391c-3.816,1.969-6.709,2.732-10.767,2.732c-10.647,0-15.95-6.911-15.95-13.981
	C99.806,6.83,105.792,0,116.279,0c3.816,0,7.231,0.803,9.923,2.411v6.106c-3.013-1.688-6.066-2.812-9.441-2.812
	c-5.826,0-9.924,3.455-9.924,8.316c0,4.901,4.058,8.397,9.763,8.397c3.576,0,5.986-1.125,9.923-3.013V25.391z"/>
<path d="M146.494,28.124c-10.044,0-15.709-7.071-15.709-14.062C130.785,7.433,136.168,0,146.494,0s15.669,7.473,15.669,14.062
	C162.163,21.092,156.337,28.124,146.494,28.124z M146.494,5.705c-5.223,0-8.678,3.334-8.678,8.356s3.456,8.357,8.678,8.357
	c5.183,0,8.638-3.335,8.638-8.357S151.676,5.705,146.494,5.705z"/>
<path d="M194.869,27.762h-5.745l-15.146-17.557v17.557h-6.83v-27.4h6.268l14.624,16.753V0.361h6.83V27.762z"/>
<path d="M228.781,27.762h-5.745L207.89,10.205v17.557h-6.83v-27.4h6.268l14.624,16.753V0.361h6.83V27.762z"/>
<path d="M255.22,27.762h-20.209v-27.4h19.928v5.022h-13.098v5.746h12.495v5.022h-12.495v6.589h13.379V27.762z"/>
<path d="M285.997,25.391c-3.816,1.969-6.709,2.732-10.768,2.732c-10.646,0-15.949-6.911-15.949-13.981
	C259.28,6.83,265.267,0,275.752,0c3.817,0,7.232,0.803,9.924,2.411v6.106c-3.014-1.688-6.066-2.812-9.441-2.812
	c-5.825,0-9.924,3.455-9.924,8.316c0,4.901,4.058,8.397,9.763,8.397c3.576,0,5.986-1.125,9.924-3.013V25.391z"/>
<path d="M316.172,5.383h-9.923v22.378h-6.83V5.383h-9.924V0.361h26.677V5.383z"/>
<path d="M340.603,27.762h-20.209v-27.4h19.928v5.022h-13.098v5.746h12.495v5.022h-12.495v6.589h13.379V27.762z"/>
<path d="M357.88,0.361c10.004,0,15.146,6.228,15.146,13.74c0,7.875-4.982,13.66-15.91,13.66h-11.329v-27.4H357.88z M352.616,22.74
	h4.46c6.87,0,8.919-4.661,8.919-8.678c0-4.701-2.531-8.678-8.999-8.678h-4.38V22.74z"/>
<path d="M20.301,40.508c7.419,0,11.818,4.981,11.818,10.387c0,3.975-2.067,6.942-6.2,8.851c3.709,1.854,4.822,6.306,9.91,16.904
	h-9.91c-3.869-7.737-5.299-14.68-10.175-14.68h-2.597v14.68H4.138V40.508H20.301z M13.147,55.346h4.77
	c2.49,0,4.928-1.06,4.928-4.134c0-2.702-1.749-4.08-5.141-4.08h-4.557V55.346z"/>
<path d="M91.056,77.126h-3.922L69.646,40.508h9.804l9.539,20.614l9.062-20.614h9.698L91.056,77.126z"/>
<path d="M127.522,77.126c-13.249,0-20.721-9.326-20.721-18.547c0-8.744,7.101-18.549,20.721-18.549
	c13.619,0,20.667,9.857,20.667,18.549C148.189,67.853,140.505,77.126,127.522,77.126z M127.522,47.556
	c-6.889,0-11.447,4.398-11.447,11.023c0,6.623,4.558,11.021,11.447,11.021c6.836,0,11.394-4.398,11.394-11.021
	C138.916,51.954,134.358,47.556,127.522,47.556z"/>
<path d="M182.27,76.649h-25.516l5.292-6.632l20.224,0.008V76.649z"/>
<path d="M223.132,40.508v20.509c0,11.977-8.161,16.109-18.071,16.109c-10.492,0-18.07-4.875-18.07-16.057V40.508h9.009v20.773
	c0,5.193,3.763,8.319,8.956,8.319c4.77,0,9.168-2.49,9.168-8.955V40.508H223.132z"/>
<path d="M263.571,47.132h-13.09v29.518h-9.009V47.132h-13.09v-6.624h35.188V47.132z"/>
<path d="M305.865,77.126c-13.248,0-20.721-9.326-20.721-18.547c0-8.744,7.102-18.549,20.721-18.549
	c13.62,0,20.668,9.857,20.668,18.549C326.533,67.853,318.849,77.126,305.865,77.126z M305.865,47.556
	c-6.889,0-11.446,4.398-11.446,11.023c0,6.623,4.558,11.021,11.446,11.021c6.837,0,11.394-4.398,11.394-11.021
	C317.259,51.954,312.702,47.556,305.865,47.556z"/>
<path d="M369.676,76.649h-7.578l-19.979-23.158v23.158h-9.01V40.508h8.268l19.29,22.099V40.508h9.009V76.649z"/>
<path d="M284.56,35.679c-0.021-0.266-0.22-0.795-0.33-0.883c-0.111-0.088-0.311-0.266-0.353-0.331
	c-0.045-0.065-0.222-0.177-0.222-0.177s-0.286-0.264-0.286-0.11c0,0.154-0.177,0.507-0.308,0.639
	c-0.135,0.132-0.266,0.375-0.222,0.596c0.043,0.221,0.265,1.213,0.087,1.631c-0.175,0.42-0.418,0.772-0.418,0.772
	s-0.22-0.088-0.286,0.198c-0.066,0.287-0.641,1.456-0.903,1.896c-0.265,0.439-0.684,1.344-0.904,1.697
	c-0.22,0.354-0.154,0.057-0.396,0.453c-0.242,0.398-0.44,0.839-0.573,0.971c-0.132,0.133-0.22,0.309-0.354,0.353
	c-0.132,0.044-0.286,0.507-0.374,0.396c-0.089-0.11-0.22-0.286-0.376-0.265c-0.153,0.022-0.285,0.178-0.33,0.242
	c-0.021,0.033-0.193,0.111-0.37,0.178c-0.035,0.013-0.07,0.025-0.105,0.037c-0.026,0.018-0.053,0.031-0.081,0.042
	c-0.136,0.03-0.359,0.143-0.359-0.081c0-0.111,0-0.225,0.065-0.324c0.027-0.038,0.055-0.076,0.08-0.111
	c0.026-0.034,0.047-0.07,0.064-0.104c0.019-0.088,0.023-0.165,0.023-0.165s0.091-0.271,0.16-0.667
	c0.022-0.133,0.044-0.279,0.06-0.436c0.01-0.109,0.012-0.225,0.008-0.342s-0.016-0.236-0.036-0.355s-0.052-0.239-0.093-0.355
	c-0.042-0.117-0.094-0.232-0.156-0.345c-0.062-0.104-0.136-0.202-0.223-0.294c-0.085-0.091-0.18-0.176-0.284-0.25
	c-0.112-0.061-0.229-0.115-0.347-0.16c-0.367-0.227-0.788-0.252-1.193-0.145c-0.102,0.027-0.202,0.062-0.299,0.104
	c-1.184,0.373-1.518,1.826-1.283,2.98c0.036,0.112,0.082,0.227,0.136,0.332c0.222,0.418,0.354,0.418,0.376,0.639
	c0.021,0.22,0.087,0.551-0.045,0.484c-0.131-0.066-0.242-0.176-0.353-0.242c-0.109-0.066-1.08-0.662-1.256-0.573
	c-0.177,0.089-0.375,0.419-0.485,0.419s-0.463-0.133-0.684-0.33c-0.22-0.199-0.814-0.707-1.059-1.059
	c-0.242-0.354-0.613-0.547-0.988-0.965c-0.375-0.42-1.675-1.984-1.83-2.205c-0.153-0.221-0.198-0.375-0.331-0.375
	c-0.132,0-0.241-0.22-0.374-0.396c-0.133-0.177-0.396-0.617-0.396-0.771s0.042-1.897,0.042-1.897s-0.088-0.396-0.219-0.507
	c-0.134-0.11-0.332-0.22-0.332-0.22s-0.132,0.11-0.22,0.11s-0.088-0.022-0.199-0.088c-0.11-0.066-0.132-0.176-0.197-0.154
	c-0.066,0.021-0.221-0.044-0.154,0.132c0.065,0.177,0.11,0.332,0,0.353c-0.111,0.021-0.153,0.021-0.153,0.111
	c0,0.087-0.046,0.154-0.178,0.197c-0.132,0.045-0.177,0.265-0.177,0.332c0,0.066,0.065,0.331,0.065,0.331s0.066,0.684,0.089,0.815
	c0.022,0.132,0.529,0.993,0.595,1.059c0.067,0.066,0.553,0.904,0.553,0.904s0.087,0.331-0.045,0.441
	c-0.132,0.109-0.286,0.33-0.198,0.374c0.088,0.045,0.948,1.169,1.212,1.433c0.265,0.266,0.949,0.992,0.949,0.992
	s0.175,0.441,0.197,0.529s0.177,0.441,0.243,0.441c0.065,0,0.062,0.039,0.107,0.171c0.043,0.133,0.639,0.685,0.813,0.86
	c0.178,0.176,0.686,0.816,0.686,0.816s0.198,0.182,0.419,0.383c0.22,0.201,0.463,0.422,0.552,0.5
	c0.218,0.424,0.394,0.897,0.526,1.399c0.044,0.168,0.084,0.339,0.119,0.513c0.078,0.145,0.147,0.291,0.21,0.439
	c0.061,0.146,0.115,0.297,0.161,0.448c0.229,0.501,0.339,0.995,0.369,1.487c0.017,0.244,0.011,0.488-0.006,0.73
	c-0.007,0.127-0.017,0.252-0.025,0.379c0.099,1.023-0.065,1.973-0.308,2.965c-0.008,0.039-0.019,0.079-0.027,0.119
	c-0.205,0.961-0.364,3.762-0.326,4.744c0.002,0.037,0.004,0.074,0.006,0.109c0.003,0.041,0.005,0.082,0.008,0.123
	c0.052,0.904,0.028,1.812-0.056,2.748c-0.019,0.124-0.045,0.247-0.084,0.37c-0.022,0.124-0.049,0.249-0.081,0.372
	c-0.03,0.125-0.068,0.252-0.109,0.377c-0.012,0.124-0.066,0.448-0.138,0.845c-0.144,0.79-0.347,2.925-0.403,3.239
	c-0.086,0.475-0.446,2.941-0.446,3.499c0,0.557-0.479,2.398-0.479,2.483c0,0.084-0.548,1.316-0.771,1.452
	c-0.223,0.136-0.65,0.693-0.719,0.913s0.429,0.338,0.601,0.338c0.171,0,0.685,0,0.89-0.084c0.206-0.084,0.411-0.559,0.513-0.711
	c0.103-0.152,0.326-0.676,0.515-0.709s0.205,0.202,0.205,0.202l0.017,0.862l0.172-0.018c0,0-0.017-0.709-0.017-0.811
	s0.017-0.523,0.085-0.591s0.103-0.186,0.292-0.339c0.188-0.15-0.189-0.946-0.189-1.436c0-0.169,0.258-0.913,0.326-1.099
	c0.067-0.186,0.548-1.976,0.548-1.976s0.184-0.685,0.249-0.926c0.062-0.24,0.146-0.664,0.206-1.077
	c0.122-0.495,0.556-2.157,0.718-2.736c0,0,0.285-1.415,0.565-1.376c0.461-0.007,1.392,0.045,1.881,0.036
	c0.205,0.132,0.604,1.292,0.604,1.292c0.141,0.445,0.377,1.13,0.436,1.459c0.108,0.594,0.187,2.326,0.252,2.707
	c0.063,0.38,0.089,2.99,0.089,3.244c0,0.252-0.102,1.014-0.191,1.355c-0.091,0.342-0.167,1.229-0.167,1.52
	c0,0.293-0.104,0.723-0.309,1.026c-0.206,0.306-0.192,0.47-0.142,0.724c0.051,0.253,0.552,0.291,0.835,0.266
	c0.282-0.025,0.81-0.228,0.886-0.367c0.077-0.139,0.193-0.622,0.219-0.799c0.026-0.177,0.077-0.393,0.077-0.393
	s0.038,0.062,0.038,0.24s0.053,0.495,0.053,0.495s0.102,0.024,0.102-0.038c0-0.063,0.014-0.635,0.014-0.773
	c0-0.14,0-0.266,0.052-0.405c0.165-0.329-0.039-0.723-0.167-0.875c-0.129-0.151-0.142-0.925-0.129-1.165
	c0.014-0.241,0.303-1.424,0.372-1.694c0.067-0.271,0.258-2.247,0.324-2.669c0.124-0.696-0.245-3.14-0.365-3.713
	c-0.03-0.145-0.05-0.381-0.063-0.658c-0.014-0.279-0.021-0.597-0.023-0.905c0.023-0.236,0.047-0.474,0.073-0.71
	c0.027-0.236,0.052-0.474,0.076-0.709c0.19-1.082,0.229-2.129,0.178-3.164c-0.006-0.115-0.012-0.229-0.021-0.344
	c-0.066-1.131-0.578-4.153-0.726-5.277c-0.018-0.128-0.035-0.255-0.048-0.382c-0.055-0.509-0.073-1.015-0.104-1.505
	c-0.007-0.137-0.008-0.271-0.004-0.408c0.02-0.543,0.139-1.08,0.418-1.611c0.079-0.138,0.162-0.275,0.246-0.412
	c0.167-0.273,0.335-0.546,0.473-0.828c0.078-0.264,0.157-0.522,0.243-0.78s0.181-0.512,0.283-0.765
	c0.081-0.154,0.23-0.392,0.393-0.639c0.163-0.248,0.339-0.508,0.471-0.705c0.266-0.398,0.86-1.104,1.015-1.478
	c0.154-0.376,0.22-0.552,0.462-0.839c0.243-0.287,0.617-0.991,0.663-1.278c0.044-0.286-0.089-0.079,0.153-0.542
	c0.243-0.464,0.948-1.654,1.014-1.764c0.065-0.11,0.396-0.552-0.154-0.86c0,0-0.176-0.155-0.134-0.33
	c0.046-0.177,0.223-0.816,0.377-1.015c0.155-0.198,0.265-0.331,0.265-0.618c0-0.286,0.043-0.506,0.043-0.506
	S284.581,35.942,284.56,35.679z"/>
<path fill-rule="evenodd" clip-rule="evenodd" d="M165.095,61.427c-0.318-1.252-0.615-1.935-0.615-1.935l-0.568,0.159l-0.023-0.613
	l-0.045-0.319c0,0,0.454-0.136,0.409-0.614c-0.045-0.478-0.25-0.842-0.25-0.842s0.386,0.046,0.363-0.387
	c-0.022-0.432-0.159-3.48-0.295-5.279c-0.136-1.797-0.318-3.229-0.363-4.367c-0.046-1.139,0-2.571-0.319-2.891
	c-0.318-0.318-1.843-0.887-2.457-1.273c-0.369-0.232-0.624-0.277-0.757-0.408l-0.016-0.42l-0.08-0.123c0,0-0.004,0.004-0.008,0.008
	c0.017-0.529-0.224-0.479-0.072-0.717c0.16-0.251,0.409-0.956,0.523-1.549c0.114-0.591,0.114-1.273-0.25-1.774
	c-0.364-0.501-1.092-0.933-1.729-0.91c-0.637,0.023-1.433,0.615-1.661,1.206c-0.229,0.591-0.136,1.091-0.045,1.343
	c0.091,0.249,0.432,0.887,0.432,1.182c0,0.296,0.478,0.66,0.25,1.023c-0.227,0.365-0.273,0.16-0.637,0.389
	c-0.364,0.227-1.092,0.432-2.048,0.613c-0.956,0.183-1.183,0.296-1.41,0.91c-0.228,0.615-0.501,1.41-0.501,1.752
	c0,0.341,0.228,0.479-0.045,0.773s-0.296,0.842-0.387,1.093c-0.091,0.249-0.455,1.41-0.546,1.752
	c-0.091,0.341-0.228,1.001-0.182,1.365c0.045,0.363,0.364,1.022,0.364,1.341s0,0.66,0.182,0.912c0.182,0.25,0.5,0.818,0.5,1.137
	s0.046,0.432,0.136,0.66c0.092,0.228,0.251,0.705,0.342,0.729c0.091,0.021,0.229,0.158,0.229,0.158s0.022,0.729,0.272,1.365
	c0.25,0.637,0.591,0.91,0.682,0.934c0.091,0.022-0.136,3.525-0.182,4.709s-0.114,2.253-0.41,3.572s-0.387,2.299-0.387,3.139
	c0,0.844-0.159,2.39,0.16,3.597c0.318,1.206,0.523,1.364,0.41,1.752c-0.114,0.386-0.455,1.536-0.368,1.758
	c0.158,0.403,0.959,0.335,1.415,0.312c0.454-0.023,1.183-0.069,0.955-0.706s-0.364-1.205-0.228-1.342
	c0.137-0.137,1.16-1.639,1.16-2.207s0.273-5.188,0.342-5.848s0.16-1.707,0.182-2.457c0.023-0.75,0.523-3.094,1.092-4.551
	c0.136-0.364,0.387,1.479,0.387,2.48c0,1.001,0.044,3.891,0.136,5.188c0.091,1.297,0.046,2.48-0.114,3.049
	c-0.159,0.568-0.295,1.661-0.295,2.115c0,0.456,0,0.637,0.067,0.705c0.069,0.069-0.021,1.252-0.021,1.252l0.75,0.273
	c0,0,0.433-0.229,0.5,0.045c0.069,0.273,0.046,0.547,0.684,0.706c0.636,0.158,1.228,0.204,1.546,0.113s0.569-0.091,0.342-0.501
	c-0.228-0.408-0.205-0.523-0.661-0.932c-0.455-0.41-0.864-0.547-0.864-1.07s-0.068-0.66,0.205-1.092
	c0.273-0.434,0.774-0.434,0.774-2.139c0-1.707,0.114-3.48,0.114-3.48l1.388-0.137l0.409-0.205l1.57-1.297
	C165.527,64.612,165.413,62.678,165.095,61.427z M154.401,50.028c-0.045,0.568-0.16,1.091-0.16,1.091
	c0,0.296-0.09,0.046-0.113-0.296s-0.204-1.273-0.091-1.797c0.114-0.523,0.364-0.842,0.41-0.592
	C154.492,48.685,154.447,49.458,154.401,50.028z M162.933,58.651c-0.045,0.227-0.023,1.297-0.023,1.297l-0.273,0.137
	c0,0,0.068-1.001,0.091-1.229C162.751,58.628,162.979,58.423,162.933,58.651z M163.435,59.675c0,0,0.022-0.613,0.136-0.705
	c0.115-0.092,0.16,0.637,0.16,0.637L163.435,59.675z"/>
<g>
	<path fill="#010101" d="M39.939,61.655c0.283,0.271,0.829,0.124,1.146,0c0.666,4.404-0.244,9.666,1.148,13.613
		c-0.014,0.471-0.717,0.787-0.536,1.528c0.499,0.325,1.596,0.116,2.065-0.077c0.325-0.35,0.299-0.786,0.381-1.223
		c0.246-1.291,0.021-3.119,0.152-4.665c0.04-0.457,0.224-0.888,0.231-1.3c0.012-0.75-0.296-1.438-0.384-2.219
		c-0.285-2.555,0.174-5.135,0.766-7.265c0.607,0.213,0.839,0.938,1.146,1.453c2.207,3.683,2.933,9.052,4.589,13.384
		c0.28,0.151,0.513,0.006,0.841,0c0.189,0.064-0.023,0.532,0.152,0.611c0.792,0.104,0.666,0.708,1.225,0.765
		c0.735,0.14,1.902,0.351,1.912-0.076c0.018-1.163-1.054-1.241-1.376-2.063c0.222-1.578-0.711-2.779-1.224-4.438
		c-0.316-1.021-0.479-2.293-1.071-3.212c-0.938-1.452-1.16-3.948-1.53-6.042c0.372-0.479,0.252-1.054,0.229-1.836
		c-0.032-1.125,0.279-2.634,0.382-4.053c0.098-1.342-0.426-2.602-0.305-3.441c0.078-0.542,0.919-1.097,0.917-1.605
		c0-0.316-0.436-0.557-0.612-0.918c-0.628-1.291-0.39-3.044-1.834-3.288c-0.002-0.534-0.284-0.788-0.307-1.3
		c-0.064-0.42-0.657-0.311-0.764-0.688c0.01-0.131,0.012-0.256,0.011-0.377c0.183,0.131,0.368,0.254,0.554,0.35
		c-0.188-0.131-0.373-0.295-0.556-0.467c-0.004-0.104-0.014-0.205-0.025-0.304c0.139,0.152,0.307,0.313,0.408,0.189
		c-0.121,0.12-0.312-0.187-0.432-0.362c-0.077-0.447-0.233-0.83-0.441-1.15c0.188,0.112,0.358,0.253,0.479,0.456
		c-0.127-0.308-0.364-0.515-0.619-0.693c0.014-0.241-0.065-0.519-0.296-0.663c-0.246-0.153-0.525-0.181-0.802-0.158l0.005,0.03
		c-0.833-0.333-1.674-0.092-2.358,0.471c-0.503,0.132-0.924,0.472-1.21,0.868h0c0.257-0.295,0.599-0.526,0.963-0.646
		c-0.36,0.357-0.664,0.806-0.884,1.3l-0.397,0.515l0.292-0.256c-0.058,0.154-0.107,0.311-0.147,0.47
		c-0.101,0.147-0.233,0.262-0.438,0.29c0.167-0.002,0.296-0.061,0.405-0.145c-0.063,0.295-0.097,0.596-0.093,0.895
		c-0.004,0.01-0.008,0.02-0.012,0.029c-0.086,0.133-0.188,0.58-0.456,0.34l0,0c0.049,0.172,0.296,0.09,0.338-0.007
		c0.051-0.054,0.095-0.113,0.136-0.173c0.007,0.104,0.017,0.207,0.033,0.31c-0.09,0.188-0.163,0.392-0.382,0.484
		c0.209-0.071,0.307-0.238,0.398-0.397c0.025,0.137,0.056,0.273,0.098,0.406c-0.076,0.352-0.485,0.682-0.38,1.115
		c-0.165,0.22-0.375,0.4-0.667,0.477c0.284-0.037,0.513-0.178,0.707-0.363c0.011,0.023,0.021,0.048,0.035,0.072
		c-1.64,1.001-0.024,4.431-1.529,5.66c0.402,0.643,1,1.09,1.529,1.605c-0.475,1.604-0.739,3.444-1.147,5.123
		C40.169,59.53,39.524,60.468,39.939,61.655z M46.654,40.939c-0.025-0.019-0.051-0.036-0.077-0.055
		c-0.136-0.157-0.285-0.297-0.443-0.415c-0.096-0.07-0.193-0.131-0.29-0.185C46.229,40.267,46.644,40.479,46.654,40.939z"/>
	<polygon fill="#010101" points="41.348,44.899 41.354,44.896 41.348,44.9 	"/>
	<polygon fill="#010101" points="41.676,42.661 41.679,42.659 41.676,42.663 	"/>
</g>
<polygon points="66.41,47.132 50.347,47.132 47.289,40.508 66.41,40.508 "/>
<rect x="51.588" y="54.684" width="14.821" height="6.624"/>
<polygon points="66.41,76.646 55.443,76.646 53.193,70.021 66.41,70.021 "/>
</svg>
