<?xml version="1.0" encoding="utf-8"?>
<!-- Generator: Adobe Illustrator 22.0.1, SVG Export Plug-In . SVG Version: 6.00 Build 0)  -->
<svg version="1.1" id="Layer_1" xmlns="http://www.w3.org/2000/svg" xmlns:xlink="http://www.w3.org/1999/xlink" x="0px" y="0px"
	 viewBox="0 0 960 2000" style="enable-background:new 0 0 960 2000;" xml:space="preserve">
<style type="text/css">
	.st0{fill:#13141D;}
	.st1{fill:#DDCE95;stroke:#000000;stroke-miterlimit:10;}
	.st2{fill:#F5E9DA;}
	.st3{opacity:0.9;}
	.st4{fill:#C9BCB2;}
	.st5{fill:#FFFFFF;}
	.st6{fill:#F6FFD4;}
	.st7{font-family:'ComicSansMS';}
	.st8{font-size:50.7729px;}
	.st9{font-size:36px;}
	.st10{fill:none;}
	.st11{stroke:#000000;stroke-width:2;stroke-miterlimit:10;}
	.st12{fill:#00000A;}
	.st13{fill:#F58F2A;}
	.st14{fill:#FFA32A;}
	.st15{fill:#C9F9FF;}
	.st16{fill:#F63119;}
	.st17{fill:#F8422E;}
	.st18{fill:url(#SVGID_1_);}
</style>
<g>
	<path class="st0" d="M283.5,86.5c-23.7,0-43-19.3-43-43s19.3-43,43-43h393c23.7,0,43,19.3,43,43s-19.3,43-43,43H283.5z"/>
	<path d="M676.5,1C699.9,1,719,20.1,719,43.5c0,23.4-19.1,42.5-42.5,42.5h-393C260.1,86,241,66.9,241,43.5C241,20.1,260.1,1,283.5,1
		H676.5 M676.5,0h-393c-24,0-43.5,19.5-43.5,43.5v0c0,24,19.5,43.5,43.5,43.5h393c24,0,43.5-19.5,43.5-43.5v0
		C720,19.5,700.5,0,676.5,0L676.5,0z"/>
</g>
<g>
	<path class="st1" d="M254.9,210.1"/>
	<g>
		<circle class="st2" cx="271.4" cy="341.4" r="182.9"/>
		<path class="st2" d="M271.4,158.9c24.7,0,48.5,4.8,71,14.3c21.7,9.2,41.2,22.3,58,39.1c16.7,16.7,29.9,36.3,39.1,58
			c9.5,22.5,14.3,46.4,14.3,71s-4.8,48.5-14.3,71c-9.2,21.7-22.3,41.2-39.1,58c-16.7,16.8-36.3,29.9-58,39.1
			c-22.5,9.5-46.4,14.3-71,14.3c-24.7,0-48.5-4.8-71-14.3c-21.7-9.2-41.2-22.3-58-39.1c-16.7-16.7-29.9-36.3-39.1-58
			c-9.5-22.5-14.3-46.4-14.3-71s4.8-48.5,14.3-71c9.2-21.7,22.3-41.2,39.1-58c16.7-16.7,36.3-29.9,58-39.1
			C222.9,163.7,246.7,158.9,271.4,158.9 M271.4,158C170.1,158,88,240.1,88,341.4s82.1,183.4,183.4,183.4s183.4-82.1,183.4-183.4
			S372.7,158,271.4,158L271.4,158z"/>
	</g>
	<g class="st3">
		<path class="st4" d="M271.3,523.4c-100.8,0-182.8-81.7-182.8-182.1c0-55.5,25-107.4,68.6-142.1c17.9-14.2,37.9-24.8,59.6-31.6
			c-1.2,1-2.5,1.9-3.6,2.8c-43.8,34.9-69,87-69,142.9c0,100.9,82.4,183,183.6,183c16.9,0,33.7-2.3,49.9-6.9
			C346.5,511.7,309.8,523.4,271.3,523.4z"/>
		<path class="st2" d="M214.4,168.7c-0.5,0.4-1.1,0.9-1.6,1.2c-44,35.1-69.2,87.2-69.2,143.3c0,101.1,82.6,183.4,184.1,183.4
			c16.1,0,32.1-2,47.5-6.2c-30.6,21.3-66.5,32.5-104.1,32.5c-24.7,0-48.5-4.8-70.9-14.2c-21.7-9.2-41.2-22.3-57.9-38.9
			c-16.7-16.6-29.9-36.1-39.1-57.8c-9.5-22.4-14.3-46.2-14.3-70.8c0-28,6.2-55,18.6-80c11.7-23.9,29-45.2,49.8-61.9
			C174.6,185.8,193.7,175.5,214.4,168.7 M219.1,166.3c-23,6.8-44,17.9-62.2,32.4C114.9,232.2,88,283.6,88,341.3
			c0,100.8,82.1,182.6,183.2,182.6c40.7,0,78.3-13.3,108.8-35.6c-16.6,4.9-34.1,7.6-52.2,7.6c-101.2,0-183.2-81.7-183.2-182.6
			c0-57.7,26.9-109.1,68.8-142.6C215.2,169.3,217.1,167.7,219.1,166.3L219.1,166.3z"/>
	</g>
	<g>
		<circle class="st4" cx="311" cy="234.1" r="22.6"/>
		<path class="st5" d="M311,211.7c12.4,0,22.5,10.1,22.5,22.5c0,12.5-10.1,22.5-22.5,22.5s-22.5-10.1-22.5-22.5
			C288.5,221.8,298.6,211.7,311,211.7 M311,211.4c-12.6,0-22.7,10.1-22.7,22.7s10.1,22.7,22.7,22.7c12.6,0,22.7-10.1,22.7-22.7
			S323.6,211.4,311,211.4L311,211.4z"/>
	</g>
	<g>
		<ellipse class="st4" cx="235.8" cy="441.5" rx="16.9" ry="17.4"/>
		<path class="st2" d="M235.8,426c8.4,0,15.1,7,15.1,15.6c0,8.5-6.8,15.6-15.1,15.6s-15.1-7-15.1-15.6
			C220.7,433,227.4,426,235.8,426 M235.8,422.4c-10.3,0-18.7,8.5-18.7,19.1s8.4,19.1,18.7,19.1s18.7-8.5,18.7-19.1
			S246.1,422.4,235.8,422.4L235.8,422.4z"/>
	</g>
	<g>
		<ellipse class="st4" cx="400.5" cy="370.3" rx="15.9" ry="19"/>
		<path class="st5" d="M400.5,351.5c8.7,0,15.8,8.5,15.8,19c0,10.5-7.1,19-15.8,19c-8.7,0-15.8-8.5-15.8-19S391.7,351.5,400.5,351.5
			 M400.5,351.2c-8.8,0-16,8.5-16,19.1c0,10.6,7.2,19.1,16,19.1s16-8.5,16-19.1C416.5,359.7,409.4,351.2,400.5,351.2L400.5,351.2z"
			/>
	</g>
	<g>
		<circle class="st4" cx="339.5" cy="436.2" r="15.5"/>
		<path class="st5" d="M339.5,420.9c8.5,0,15.4,6.9,15.4,15.4c0,8.5-6.9,15.4-15.4,15.4c-8.5,0-15.4-6.9-15.4-15.4
			C324.1,427.7,331,420.9,339.5,420.9 M339.5,420.6c-8.6,0-15.6,6.9-15.6,15.6c0,8.6,6.9,15.6,15.6,15.6c8.6,0,15.6-6.9,15.6-15.6
			C355.1,427.6,348.1,420.6,339.5,420.6L339.5,420.6z"/>
	</g>
	<g>
		<ellipse class="st4" cx="400.9" cy="264.9" rx="4.8" ry="4.4"/>
		<path class="st5" d="M400.9,260.7c2.6,0,4.7,1.9,4.7,4.3c0,2.4-2.1,4.3-4.7,4.3s-4.7-1.9-4.7-4.3
			C396.2,262.5,398.3,260.7,400.9,260.7 M400.9,260.4c-2.7,0-4.9,2-4.9,4.5s2.2,4.5,4.9,4.5s4.9-2,4.9-4.5S403.7,260.4,400.9,260.4
			L400.9,260.4z"/>
	</g>
	<g>
		<circle class="st4" cx="284.8" cy="351.2" r="11.5"/>
		<path class="st5" d="M284.8,339.9c6.2,0,11.4,5.1,11.4,11.4c0,6.3-5.1,11.4-11.4,11.4c-6.3,0-11.4-5.1-11.4-11.4
			C273.4,345,278.5,339.9,284.8,339.9 M284.8,339.6c-6.4,0-11.6,5.2-11.6,11.6s5.2,11.6,11.6,11.6c6.4,0,11.6-5.2,11.6-11.6
			S291.2,339.6,284.8,339.6L284.8,339.6z"/>
	</g>
	<g>
		<circle class="st4" cx="231.8" cy="244.8" r="3.9"/>
		<path class="st5" d="M231.8,241.1c2,0,3.8,1.7,3.8,3.8c0,2.1-1.7,3.8-3.8,3.8c-2.1,0-3.8-1.7-3.8-3.8
			C228,242.8,229.7,241.1,231.8,241.1 M231.8,240.8c-2.2,0-4,1.8-4,4c0,2.2,1.8,4,4,4c2.2,0,4-1.8,4-4
			C235.8,242.6,234,240.8,231.8,240.8L231.8,240.8z"/>
	</g>
	<g>
		<circle class="st4" cx="248.3" cy="190.1" r="15.9"/>
		<path class="st5" d="M248.3,174.3c8.7,0,15.8,7.1,15.8,15.8s-7.1,15.8-15.8,15.8s-15.8-7.1-15.8-15.8S239.5,174.3,248.3,174.3
			 M248.3,174.1c-8.8,0-16,7.2-16,16s7.2,16,16,16c8.8,0,16-7.2,16-16S257.2,174.1,248.3,174.1L248.3,174.1z"/>
	</g>
	<g>
		<circle class="st4" cx="157" cy="303.6" r="36.9"/>
		<path class="st2" d="M157,268.4c19.4,0,35.2,15.8,35.2,35.2s-15.8,35.2-35.2,35.2s-35.2-15.8-35.2-35.2S137.6,268.4,157,268.4
			 M157,264.9c-21.4,0-38.7,17.4-38.7,38.7s17.4,38.7,38.7,38.7s38.7-17.4,38.7-38.7S178.4,264.9,157,264.9L157,264.9z"/>
	</g>
</g>
<text transform="matrix(0.9277 0 0 1 558.3213 269.4512)"><tspan x="0" y="0" class="st6 st7 st8">Zachary Carlin</tspan><tspan x="30.4" y="121.9" class="st6 st7 st8">BodyBuilder</tspan></text>
<rect x="254" y="603" class="st5" width="495" height="1148"/>
<text transform="matrix(1 0 0 1 419.7168 651)" class="st7 st9">About Me</text>
<rect x="277" y="700" class="st10" width="454" height="491"/>
<text transform="matrix(1 0 0 1 293.5635 728.0078)"><tspan x="0" y="0" class="st7 st9">I Currentley am finishing </tspan><tspan x="0.4" y="43.2" class="st7 st9">up my Associates Degree </tspan><tspan x="38" y="86.4" class="st7 st9">from SPC and will be </tspan><tspan x="25.5" y="129.6" class="st7 st9">transfering to USF to </tspan><tspan x="33.8" y="172.8" class="st7 st9">pursue a bachelors in   </tspan><tspan x="-14.4" y="216" class="st7 st9">Computer Science. Besides </tspan><tspan x="-4.1" y="259.2" class="st7 st9">Technology I also have an </tspan><tspan x="16.5" y="302.4" class="st7 st9">avid passion for Health </tspan><tspan x="0.6" y="345.6" class="st7 st9">and fitness. Here a video </tspan><tspan x="101.1" y="388.8" class="st7 st9">of me lifting.</tspan></text>
<line class="st10" x1="342" y1="1169" x2="528" y2="1168"/>
<rect x="72" y="1833" class="st5" width="389" height="556"/>
<g>
	<rect x="139" y="1921" class="st10" width="493" height="481"/>
	<text transform="matrix(1 0 0 1 139 1949.0078)"><tspan x="0" y="0" class="st7 st9">HTML</tspan><tspan x="0" y="43.2" class="st7 st9">CSS</tspan><tspan x="0" y="86.4" class="st7 st9">Python</tspan><tspan x="0" y="129.6" class="st7 st9">Javascript</tspan><tspan x="0" y="172.8" class="st7 st9">Node</tspan><tspan x="0" y="216" class="st7 st9">Vue</tspan><tspan x="0" y="259.2" class="st7 st9">Phothoshop</tspan><tspan x="0" y="302.4" class="st7 st9">Illustrator</tspan></text>
	<rect x="112" y="1865" class="st10" width="161" height="51"/>
	<text transform="matrix(1 0 0 1 146.6299 1893.0078)" class="st7 st9">Skills</text>
	<line class="st11" x1="145" y1="1900" x2="243" y2="1900"/>
</g>
<rect x="397" y="1169" class="st11" width="215" height="342"/>
<rect x="344" y="1528" class="st10" width="315" height="217"/>
<text transform="matrix(1 0 0 1 344 1556.0078)"><tspan x="0" y="0" class="st7 st9">If you’re intrest</tspan><tspan x="276.8" y="0" class="st7 st9">-</tspan><tspan x="0" y="43.2" class="st7 st9">ed in my fitness </tspan><tspan x="0" y="86.4" class="st7 st9">endevours feel you </tspan><tspan x="0" y="129.6" class="st7 st9">can read more </tspan><tspan x="0" y="172.8" class="st7 st9">here.</tspan></text>
<rect x="329" y="1761" class="st10" width="413" height="513"/>
<g>
	<rect x="139.5" y="3034.5" class="st12" width="701" height="362"/>
	<path d="M840,3035v361H140v-361H840 M841,3034H139v363h702V3034L841,3034z"/>
</g>
<rect x="535" y="1833" width="333" height="556"/>
<g>
	<rect x="139.5" y="2498.5" class="st12" width="701" height="427"/>
	<path d="M840,2499v426H140v-426H840 M841,2498H139v428h702V2498L841,2498z"/>
</g>
<text transform="matrix(1 0 0 1 222 2553)" class="st5 st7 st9">Projects</text>
<text transform="matrix(1 0 0 1 582 1963)" class="st5 st7 st9">something cool</text>
<text transform="matrix(1 0 0 1 432 3095)" class="st5 st7 st9">contact</text>
<path class="st13" d="M745.4,2158.6c-5.8-0.7-11.5,2-16.4,5.9c-5.8,0.8-11.1,2.8-14.6,7.1c-24,29.4,60,145,73.1,138.6
	c0.4-0.2,0.8-0.5,1.1-1c0.3,0,0.5,0,0.8-0.1C803.1,2304.5,783.1,2163.1,745.4,2158.6z"/>
<path class="st14" d="M738.5,2139.8c-5.8-0.7-11.5,2-16.4,5.9c-5.8,0.8-11.1,2.8-14.6,7.1c-24,29.4,60,145,73.1,138.6
	c0.4-0.2,0.8-0.5,1.1-1c0.3,0,0.5,0,0.8-0.1C796.2,2285.7,776.2,2144.3,738.5,2139.8z"/>
<path class="st15" d="M640.2,1920.6L640.2,1920.6c-0.8,0.3-1.6-0.1-1.9-0.9l-9.7-26.3c-0.3-0.8,0.1-1.6,0.9-1.9l0,0
	c0.8-0.3,1.6,0.1,1.9,0.9l9.7,26.3C641.4,1919.4,641,1920.3,640.2,1920.6z"/>
<path class="st15" d="M783.8,2101.9c-10.1-3.3-21.9,0.4-21.5,12c1,28.6,75.4,101.4,83.9,92.3C854,2197.9,815.6,2112.2,783.8,2101.9z
	"/>
<path class="st15" d="M650.2,2151.2c5.6-9.1,16.9-13.9,24.1-4.8c17.8,22.4,8.4,126.1-3.9,124.7
	C659.1,2269.8,632.7,2179.6,650.2,2151.2z"/>
<g>
	<path class="st5" d="M778.5,2165.9c13.6-100.7-48.9-227-141.7-254.7c-52.6,81.3-18.1,218,57.5,285.7L778.5,2165.9z"/>
	<path class="st5" d="M778.5,2165.9c13.6-100.7-48.9-227-141.7-254.7c-52.6,81.3-18.1,218,57.5,285.7L778.5,2165.9z"/>
	<path class="st5" d="M778.5,2165.9c13.6-100.7-48.9-227-141.7-254.7c-52.6,81.3-18.1,218,57.5,285.7L778.5,2165.9z"/>
	<path class="st16" d="M778.5,2165.9c13.6-100.7-48.9-227-141.7-254.7c-52.6,81.3-18.1,218,57.5,285.7L778.5,2165.9z"/>
</g>
<g>
	<path class="st5" d="M636.8,1911.2l99.6,270.2l42.1-15.5C792.1,2065.2,729.6,1938.9,636.8,1911.2z"/>
	<path class="st5" d="M636.8,1911.2l99.6,270.2l42.1-15.5C792.1,2065.2,729.6,1938.9,636.8,1911.2z"/>
	<path class="st5" d="M636.8,1911.2l99.6,270.2l42.1-15.5C792.1,2065.2,729.6,1938.9,636.8,1911.2z"/>
	<path class="st17" d="M636.8,1911.2l99.6,270.2l42.1-15.5C792.1,2065.2,729.6,1938.9,636.8,1911.2z"/>
</g>
<g>
	<path class="st5" d="M668.5,1925c-6.3,4.4-13.9,8.4-22.3,11.5c-8.4,3.1-16.8,5-24.5,5.8c1.2-3.5,2.6-6.9,4-10.3
		c5.4-0.4,11.3-1.7,17.3-3.9c6-2.2,11.3-5.1,15.7-8.2C662,1921.4,665.3,1923.2,668.5,1925z"/>
	<path class="st5" d="M668.5,1925c-6.3,4.4-13.9,8.4-22.3,11.5c-8.4,3.1-16.8,5-24.5,5.8c1.2-3.5,2.6-6.9,4-10.3
		c5.4-0.4,11.3-1.7,17.3-3.9c6-2.2,11.3-5.1,15.7-8.2C662,1921.4,665.3,1923.2,668.5,1925z"/>
	<path class="st15" d="M668.5,1925c-6.3,4.4-13.9,8.4-22.3,11.5c-8.4,3.1-16.8,5-24.5,5.8c1.2-3.5,2.6-6.9,4-10.3
		c5.4-0.4,11.3-1.7,17.3-3.9c6-2.2,11.3-5.1,15.7-8.2C662,1921.4,665.3,1923.2,668.5,1925z"/>
	<path class="st15" d="M668.5,1925c-6.3,4.4-13.9,8.4-22.3,11.5c-8.4,3.1-16.8,5-24.5,5.8c1.2-3.5,2.6-6.9,4-10.3
		c5.4-0.4,11.3-1.7,17.3-3.9c6-2.2,11.3-5.1,15.7-8.2C662,1921.4,665.3,1923.2,668.5,1925z"/>
</g>
<g>
	<path class="st5" d="M778.4,2107c0.8,6.1,1.3,12.2,1.6,18.3c-14.7,6.5-30.7,13-47.6,19.2c-23.6,8.7-46.2,15.9-66.5,21.3
		c-3.6-4.7-7-9.6-10.3-14.6c21.1-6.3,45.2-14.3,70.5-23.6C744.7,2120.8,762.4,2113.8,778.4,2107z"/>
	<path class="st5" d="M778.4,2107c0.8,6.1,1.3,12.2,1.6,18.3c-14.7,6.5-30.7,13-47.6,19.2c-23.6,8.7-46.2,15.9-66.5,21.3
		c-3.6-4.7-7-9.6-10.3-14.6c21.1-6.3,45.2-14.3,70.5-23.6C744.7,2120.8,762.4,2113.8,778.4,2107z"/>
	<path class="st15" d="M778.4,2107c0.8,6.1,1.3,12.2,1.6,18.3c-14.7,6.5-30.7,13-47.6,19.2c-23.6,8.7-46.2,15.9-66.5,21.3
		c-3.6-4.7-7-9.6-10.3-14.6c21.1-6.3,45.2-14.3,70.5-23.6C744.7,2120.8,762.4,2113.8,778.4,2107z"/>
	<path class="st15" d="M778.4,2107c0.8,6.1,1.3,12.2,1.6,18.3c-14.7,6.5-30.7,13-47.6,19.2c-23.6,8.7-46.2,15.9-66.5,21.3
		c-3.6-4.7-7-9.6-10.3-14.6c21.1-6.3,45.2-14.3,70.5-23.6C744.7,2120.8,762.4,2113.8,778.4,2107z"/>
</g>
<ellipse transform="matrix(0.9383 -0.346 0.346 0.9383 -649.1522 354.2927)" class="st15" cx="667.9" cy="1995.6" rx="36" ry="36"/>
<linearGradient id="SVGID_1_" gradientUnits="userSpaceOnUse" x1="316.4829" y1="2066.9612" x2="361.4829" y2="2066.9612" gradientTransform="matrix(0.9383 -0.346 0.346 0.9383 -365.5159 174.2072)">
	<stop  offset="0" style="stop-color:#292735"/>
	<stop  offset="0.1879" style="stop-color:#212333"/>
	<stop  offset="1" style="stop-color:#00122A"/>
</linearGradient>
<circle class="st18" cx="667.6" cy="1996.3" r="22.5"/>
<rect x="670.1" y="2046" transform="matrix(0.9383 -0.346 0.346 0.9383 -666.8912 364.6835)" class="st15" width="36" height="9"/>
<rect x="676.4" y="2062.9" transform="matrix(0.9383 -0.346 0.346 0.9383 -672.3494 367.8806)" class="st15" width="36" height="9"/>
<path class="st15" d="M731.5,2116.1c3.4,9.3,35.7,120.1,26.4,123.5s-56.7-101.7-60.1-111.1c-3.4-9.3,1.3-19.7,10.7-23.1
	S728.1,2106.7,731.5,2116.1z"/>
<path class="st15" d="M631.9,1896.5L631.9,1896.5c-2.6,1-5.5-0.4-6.4-3l0,0c-1-2.6,0.4-5.5,3-6.4v0c2.6-1,5.5,0.4,6.4,3l0,0
	C635.8,1892.6,634.5,1895.5,631.9,1896.5z"/>
</svg>
