<?xml version="1.0" encoding="utf-8"?>
<!-- Generator: Adobe Illustrator 22.0.1, SVG Export Plug-In . SVG Version: 6.00 Build 0)  -->
<svg version="1.1" id="Layer_1" xmlns="http://www.w3.org/2000/svg" xmlns:xlink="http://www.w3.org/1999/xlink" x="0px" y="0px"
	 viewBox="0 0 413.9 413.9" style="enable-background:new 0 0 413.9 413.9;" xml:space="preserve">
<style type="text/css">
	.st0{fill:#DDCE95;stroke:#000000;stroke-miterlimit:10;}
	.st1{fill:#F5E9DA;}
	.st2{opacity:0.9;}
	.st3{fill:#C9BCB2;}
	.st4{fill:#FFFFFF;}
</style>
<path class="st0" d="M187.9,59.9"/>
<g>
	<circle class="st1" cx="206.4" cy="207.4" r="205.5"/>
	<path class="st1" d="M206.4,2.4c27.7,0,54.5,5.4,79.8,16.1c24.4,10.3,46.3,25.1,65.2,43.9c18.8,18.8,33.6,40.8,43.9,65.2
		c10.7,25.3,16.1,52.1,16.1,79.8s-5.4,54.5-16.1,79.8c-10.3,24.4-25.1,46.3-43.9,65.2s-40.8,33.6-65.2,43.9
		c-25.3,10.7-52.1,16.1-79.8,16.1s-54.5-5.4-79.8-16.1c-24.4-10.3-46.3-25.1-65.2-43.9c-18.8-18.8-33.6-40.8-43.9-65.2
		C6.8,261.9,1.4,235.1,1.4,207.4s5.4-54.5,16.1-79.8c10.3-24.4,25.1-46.3,43.9-65.2c18.8-18.8,40.8-33.6,65.2-43.9
		C151.9,7.8,178.7,2.4,206.4,2.4 M206.4,1.4c-113.8,0-206,92.2-206,206s92.2,206,206,206s206-92.2,206-206S320.2,1.4,206.4,1.4
		L206.4,1.4z"/>
</g>
<g class="st2">
	<path class="st3" d="M206.3,411.9C93,411.9,0.9,320.1,0.9,207.3C0.9,144.9,29,86.6,78,47.6c20.1-16,42.6-27.9,67-35.5
		c-1.4,1.1-2.8,2.1-4.1,3.2C91.7,54.5,63.4,113,63.4,175.8c0,113.4,92.6,205.6,206.3,205.6c19,0,37.9-2.6,56.1-7.7
		C290.8,398.7,249.5,411.9,206.3,411.9z"/>
	<path class="st1" d="M142.4,13.4c-0.6,0.5-1.2,1-1.8,1.4c-49.4,39.4-77.7,98-77.7,161c0,113.6,92.8,206.1,206.8,206.1
		c18.1,0,36.1-2.3,53.4-7c-34.4,23.9-74.7,36.5-116.9,36.5c-27.7,0-54.5-5.4-79.7-16c-24.4-10.3-46.3-25-65.1-43.7
		c-18.8-18.7-33.6-40.6-43.9-64.9C6.8,261.6,1.4,234.9,1.4,207.3c0-31.5,7-61.8,20.9-89.9c13.2-26.8,32.6-50.8,56-69.5
		C97.6,32.6,119.1,21,142.4,13.4 M147.6,10.7c-25.8,7.6-49.4,20.1-69.9,36.4C30.6,84.7,0.4,142.5,0.4,207.3
		c0,113.3,92.2,205.1,205.8,205.1c45.7,0,88-14.9,122.2-40c-18.6,5.5-38.3,8.5-58.7,8.5c-113.7,0-205.8-91.8-205.8-205.1
		c0-64.8,30.2-122.6,77.3-160.2C143.3,14,145.4,12.3,147.6,10.7L147.6,10.7z"/>
</g>
<g>
	<circle class="st3" cx="250.9" cy="86.9" r="25.4"/>
	<path class="st4" d="M250.9,61.7c13.9,0,25.3,11.3,25.3,25.3s-11.3,25.3-25.3,25.3s-25.3-11.3-25.3-25.3S237,61.7,250.9,61.7
		 M250.9,61.4c-14.1,0-25.5,11.4-25.5,25.5s11.4,25.5,25.5,25.5s25.5-11.4,25.5-25.5S265,61.4,250.9,61.4L250.9,61.4z"/>
</g>
<g>
	<ellipse class="st3" cx="166.4" cy="319.9" rx="19" ry="19.5"/>
	<path class="st1" d="M166.4,302.4c9.4,0,17,7.9,17,17.5s-7.6,17.5-17,17.5s-17-7.9-17-17.5S157,302.4,166.4,302.4 M166.4,298.4
		c-11.6,0-21,9.6-21,21.5s9.4,21.5,21,21.5s21-9.6,21-21.5S178,298.4,166.4,298.4L166.4,298.4z"/>
</g>
<g>
	<ellipse class="st3" cx="351.4" cy="239.9" rx="17.9" ry="21.4"/>
	<path class="st4" d="M351.4,218.7c9.8,0,17.8,9.5,17.8,21.3s-8,21.3-17.8,21.3s-17.8-9.5-17.8-21.3S341.6,218.7,351.4,218.7
		 M351.4,218.4c-9.9,0-18,9.6-18,21.5c0,11.9,8.1,21.5,18,21.5s18-9.6,18-21.5C369.4,228,361.4,218.4,351.4,218.4L351.4,218.4z"/>
</g>
<g>
	<circle class="st3" cx="282.9" cy="313.9" r="17.4"/>
	<path class="st4" d="M282.9,296.7c9.5,0,17.3,7.7,17.3,17.3s-7.7,17.3-17.3,17.3s-17.3-7.7-17.3-17.3S273.4,296.7,282.9,296.7
		 M282.9,296.4c-9.7,0-17.5,7.8-17.5,17.5s7.8,17.5,17.5,17.5s17.5-7.8,17.5-17.5S292.6,296.4,282.9,296.4L282.9,296.4z"/>
</g>
<g>
	<ellipse class="st3" cx="351.9" cy="121.4" rx="5.4" ry="4.9"/>
	<path class="st4" d="M351.9,116.7c2.9,0,5.3,2.1,5.3,4.8s-2.4,4.8-5.3,4.8s-5.3-2.1-5.3-4.8S349,116.7,351.9,116.7 M351.9,116.4
		c-3,0-5.5,2.2-5.5,5s2.5,5,5.5,5s5.5-2.2,5.5-5S355,116.4,351.9,116.4L351.9,116.4z"/>
</g>
<g>
	<circle class="st3" cx="221.4" cy="218.4" r="12.9"/>
	<path class="st4" d="M221.4,205.7c7,0,12.8,5.7,12.8,12.8s-5.7,12.8-12.8,12.8s-12.8-5.7-12.8-12.8S214.4,205.7,221.4,205.7
		 M221.4,205.4c-7.2,0-13,5.8-13,13s5.8,13,13,13s13-5.8,13-13S228.6,205.4,221.4,205.4L221.4,205.4z"/>
</g>
<g>
	<circle class="st3" cx="161.9" cy="98.9" r="4.4"/>
	<path class="st4" d="M161.9,94.7c2.3,0,4.3,1.9,4.3,4.3s-1.9,4.3-4.3,4.3s-4.3-1.9-4.3-4.3S159.6,94.7,161.9,94.7 M161.9,94.4
		c-2.5,0-4.5,2-4.5,4.5s2,4.5,4.5,4.5s4.5-2,4.5-4.5S164.4,94.4,161.9,94.4L161.9,94.4z"/>
</g>
<g>
	<circle class="st3" cx="180.4" cy="37.4" r="17.9"/>
	<path class="st4" d="M180.4,19.7c9.8,0,17.8,8,17.8,17.7s-8,17.8-17.8,17.8s-17.8-8-17.8-17.8S170.6,19.7,180.4,19.7 M180.4,19.4
		c-9.9,0-18,8.1-18,18s8.1,18,18,18s18-8.1,18-18S190.4,19.4,180.4,19.4L180.4,19.4z"/>
</g>
<g>
	<circle class="st3" cx="77.9" cy="164.9" r="41.5"/>
	<path class="st1" d="M77.9,125.4c21.8,0,39.5,17.7,39.5,39.5s-17.7,39.5-39.5,39.5s-39.5-17.7-39.5-39.5S56.1,125.4,77.9,125.4
		 M77.9,121.4c-24,0-43.5,19.5-43.5,43.5s19.5,43.5,43.5,43.5s43.5-19.5,43.5-43.5S101.9,121.4,77.9,121.4L77.9,121.4z"/>
</g>
</svg>
