<?xml version="1.0" encoding="utf-8"?>
<!-- Generator: Adobe Illustrator 22.0.1, SVG Export Plug-In . SVG Version: 6.00 Build 0)  -->
<svg version="1.1" id="Layer_1" xmlns="http://www.w3.org/2000/svg" xmlns:xlink="http://www.w3.org/1999/xlink" x="0px" y="0px"
	 viewBox="0 0 229.5 434.2" style="enable-background:new 0 0 229.5 434.2;" xml:space="preserve">
<style type="text/css">
	.st0{fill:#F58F2A;}
	.st1{fill:#FFA32A;}
	.st2{fill:#C9F9FF;}
	.st3{fill:#FFFFFF;}
	.st4{fill:#F63119;}
	.st5{fill:#F8422E;}
	.st6{fill:url(#SVGID_1_);}
</style>
<path class="st0" d="M129,279.9c-5.8-1.1-11.6,1.2-16.8,4.7c-5.8,0.4-11.3,2-15,6c-26,27.6,49.7,148.8,63.2,143.3
	c0.4-0.2,0.8-0.5,1.1-0.9c0.3,0,0.5,0,0.8-0.1C176.4,429.4,166.2,286.9,129,279.9z"/>
<path class="st1" d="M123.4,260.7c-5.8-1.1-11.6,1.2-16.8,4.7c-5.8,0.4-11.3,2-15,6c-26,27.6,49.7,148.8,63.2,143.3
	c0.4-0.2,0.8-0.5,1.1-0.9c0.3,0,0.5,0,0.8-0.1C170.8,410.2,160.6,267.7,123.4,260.7z"/>
<path class="st2" d="M40.7,35L40.7,35c-0.8,0.2-1.6-0.2-1.9-1L31,7.1c-0.2-0.8,0.2-1.6,1-1.9v0c0.8-0.2,1.6,0.2,1.9,1l7.8,26.9
	C41.9,34,41.5,34.8,40.7,35z"/>
<path class="st2" d="M171.2,226c-9.9-4-21.8-1.1-22.2,10.5c-1,28.6,68.1,106.4,77.3,97.9C234.6,326.6,202.3,238.4,171.2,226z"/>
<path class="st2" d="M34.5,265.8c6.2-8.6,17.8-12.7,24.4-3.1c16.2,23.6-0.4,126.3-12.6,124.1C35.1,384.7,15,293,34.5,265.8z"/>
<g>
	<path class="st3" d="M161.5,289.4c20.6-99.5-33-229.9-123.6-264c-58.1,77.4-33.3,216.2,37.4,289.1L161.5,289.4z"/>
	<path class="st3" d="M161.5,289.4c20.6-99.5-33-229.9-123.6-264c-58.1,77.4-33.3,216.2,37.4,289.1L161.5,289.4z"/>
	<path class="st3" d="M161.5,289.4c20.6-99.5-33-229.9-123.6-264c-58.1,77.4-33.3,216.2,37.4,289.1L161.5,289.4z"/>
	<path class="st4" d="M161.5,289.4c20.6-99.5-33-229.9-123.6-264c-58.1,77.4-33.3,216.2,37.4,289.1L161.5,289.4z"/>
</g>
<g>
	<path class="st3" d="M37.9,25.4L118.4,302l43.1-12.5C182,189.9,128.5,59.6,37.9,25.4z"/>
	<path class="st3" d="M37.9,25.4L118.4,302l43.1-12.5C182,189.9,128.5,59.6,37.9,25.4z"/>
	<path class="st3" d="M37.9,25.4L118.4,302l43.1-12.5C182,189.9,128.5,59.6,37.9,25.4z"/>
	<path class="st5" d="M37.9,25.4L118.4,302l43.1-12.5C182,189.9,128.5,59.6,37.9,25.4z"/>
</g>
<g>
	<path class="st3" d="M68.5,41.5c-6.6,4-14.5,7.4-23.1,9.9s-17.1,3.8-24.8,4c1.5-3.4,3-6.7,4.7-10c5.4-0.1,11.4-0.9,17.5-2.7
		c6.1-1.8,11.7-4.3,16.3-7.1C62.3,37.4,65.5,39.4,68.5,41.5z"/>
	<path class="st3" d="M68.5,41.5c-6.6,4-14.5,7.4-23.1,9.9s-17.1,3.8-24.8,4c1.5-3.4,3-6.7,4.7-10c5.4-0.1,11.4-0.9,17.5-2.7
		c6.1-1.8,11.7-4.3,16.3-7.1C62.3,37.4,65.5,39.4,68.5,41.5z"/>
	<path class="st2" d="M68.5,41.5c-6.6,4-14.5,7.4-23.1,9.9s-17.1,3.8-24.8,4c1.5-3.4,3-6.7,4.7-10c5.4-0.1,11.4-0.9,17.5-2.7
		c6.1-1.8,11.7-4.3,16.3-7.1C62.3,37.4,65.5,39.4,68.5,41.5z"/>
	<path class="st2" d="M68.5,41.5c-6.6,4-14.5,7.4-23.1,9.9s-17.1,3.8-24.8,4c1.5-3.4,3-6.7,4.7-10c5.4-0.1,11.4-0.9,17.5-2.7
		c6.1-1.8,11.7-4.3,16.3-7.1C62.3,37.4,65.5,39.4,68.5,41.5z"/>
</g>
<g>
	<path class="st3" d="M165.4,230.7c0.4,6.1,0.5,12.3,0.4,18.3c-15.1,5.4-31.5,10.8-48.8,15.8c-24.1,7-47.2,12.6-67.8,16.6
		c-3.2-5-6.3-10.1-9.2-15.3c21.5-4.8,46.1-11.1,72-18.6C130.9,242.1,149,236.4,165.4,230.7z"/>
	<path class="st3" d="M165.4,230.7c0.4,6.1,0.5,12.3,0.4,18.3c-15.1,5.4-31.5,10.8-48.8,15.8c-24.1,7-47.2,12.6-67.8,16.6
		c-3.2-5-6.3-10.1-9.2-15.3c21.5-4.8,46.1-11.1,72-18.6C130.9,242.1,149,236.4,165.4,230.7z"/>
	<path class="st2" d="M165.4,230.7c0.4,6.1,0.5,12.3,0.4,18.3c-15.1,5.4-31.5,10.8-48.8,15.8c-24.1,7-47.2,12.6-67.8,16.6
		c-3.2-5-6.3-10.1-9.2-15.3c21.5-4.8,46.1-11.1,72-18.6C130.9,242.1,149,236.4,165.4,230.7z"/>
	<path class="st2" d="M165.4,230.7c0.4,6.1,0.5,12.3,0.4,18.3c-15.1,5.4-31.5,10.8-48.8,15.8c-24.1,7-47.2,12.6-67.8,16.6
		c-3.2-5-6.3-10.1-9.2-15.3c21.5-4.8,46.1-11.1,72-18.6C130.9,242.1,149,236.4,165.4,230.7z"/>
</g>
<ellipse transform="matrix(0.9601 -0.2795 0.2795 0.9601 -28.7569 22.0795)" class="st2" cx="63" cy="111.9" rx="36" ry="36"/>
<linearGradient id="SVGID_1_" gradientUnits="userSpaceOnUse" x1="50.0128" y1="174.07" x2="95.0128" y2="174.07" gradientTransform="matrix(0.9601 -0.2795 0.2795 0.9601 -55.5915 -34.38)">
	<stop  offset="0" style="stop-color:#292735"/>
	<stop  offset="0.1879" style="stop-color:#212333"/>
	<stop  offset="1" style="stop-color:#00122A"/>
</linearGradient>
<circle class="st6" cx="62.7" cy="112.5" r="22.5"/>
<rect x="61.4" y="163.5" transform="matrix(0.9601 -0.2795 0.2795 0.9601 -43.8064 28.8903)" class="st2" width="36" height="9"/>
<rect x="66.4" y="180.8" transform="matrix(0.9601 -0.2795 0.2795 0.9601 -48.437 30.9859)" class="st2" width="36" height="9"/>
<path class="st2" d="M118.1,236.4c2.8,9.5,27.2,122.3,17.7,125s-49.4-105.4-52.2-115c-2.8-9.5,2.7-19.5,12.3-22.3
	C105.3,221.4,115.3,226.9,118.1,236.4z"/>
<path class="st2" d="M34,10.4L34,10.4c-2.7,0.8-5.4-0.8-6.2-3.4l0,0c-0.8-2.7,0.8-5.4,3.4-6.2l0,0c2.7-0.8,5.4,0.8,6.2,3.4l0,0
	C38.2,6.9,36.7,9.7,34,10.4z"/>
</svg>
